<svg xmlns='http://www.w3.org/2000/svg' class="pikchr" viewBox="0 0 76.32 132.48">
<path d="M2,58L74,58"  style="fill:none;stroke-width:7.29;stroke:rgb(0,0,0);" />
<path d="M38,58L38,130"  style="fill:none;stroke-width:7.29;stroke:rgb(0,0,0);" />
<path d="M38,58 L 50,45 Q 63,32 63,21 Q 63,9 50,5 Q 38,2 37,2 L 37,2"  style="fill:none;stroke-width:7.29;stroke:rgb(0,0,0);" />
<path d="M38,58 L 25,45 Q 12,32 12,21 Q 12,9 25,5 Q 38,2 38,2 L 38,2"  style="fill:none;stroke-width:7.29;stroke:rgb(0,0,0);" />
<path d="M45,72L66,72"  style="fill:none;stroke-width:3.24;stroke:rgb(0,0,0);" />
<path d="M45,79L66,79"  style="fill:none;stroke-width:3.24;stroke:rgb(0,0,0);" />
<path d="M52,65L52,87"  style="fill:none;stroke-width:3.24;stroke:rgb(0,0,0);" />
<path d="M59,65L59,87"  style="fill:none;stroke-width:3.24;stroke:rgb(0,0,0);" />
</svg>

